<svg data-v-423bf9ae="" xmlns="http://www.w3.org/2000/svg" viewBox="0 0 363 90" class="iconLeft"><!----><!----><!----><g data-v-423bf9ae="" id="6bdf189b-24a0-452a-970e-02ae32ca2989" fill="black" transform="matrix(4.622496310940746,0,0,4.622496310940746,109.64567554611786,0.023112146887001472)"><path d="M5.80 3.24L5.80 7.32C5.29 6.72 4.56 6.36 3.62 6.36C1.90 6.36 0.53 7.69 0.53 9.84C0.53 12.00 1.90 13.31 3.62 13.31C4.61 13.31 5.38 12.91 5.89 12.25L6.07 13.15L7.22 13.15L7.22 3.24ZM3.95 12.12C2.76 12.12 1.97 11.14 1.97 9.84C1.97 8.55 2.76 7.55 3.95 7.55C5.19 7.55 5.99 8.55 5.99 9.84C5.99 11.14 5.19 12.12 3.95 12.12ZM15.27 9.70C15.27 7.73 13.94 6.36 12.02 6.36C10.02 6.36 8.60 7.89 8.60 9.84C8.60 11.80 10.00 13.31 12.18 13.31C13.33 13.31 14.29 12.92 14.89 12.25L13.91 11.46C13.49 11.94 12.92 12.19 12.16 12.19C10.92 12.19 10.19 11.33 10.09 10.15L15.27 10.15ZM12.02 7.50C13.05 7.50 13.72 8.12 13.87 9.17L10.15 9.17C10.35 8.17 11.04 7.50 12.02 7.50ZM22.95 9.70C22.95 7.73 21.63 6.36 19.70 6.36C17.70 6.36 16.29 7.89 16.29 9.84C16.29 11.80 17.69 13.31 19.86 13.31C21.01 13.31 21.98 12.92 22.57 12.25L21.60 11.46C21.18 11.94 20.61 12.19 19.85 12.19C18.61 12.19 17.88 11.33 17.78 10.15L22.95 10.15ZM19.70 7.50C20.74 7.50 21.41 8.12 21.55 9.17L17.84 9.17C18.04 8.17 18.73 7.50 19.70 7.50ZM27.97 6.36C26.98 6.36 26.22 6.77 25.70 7.42L25.58 6.53L24.34 6.53L24.34 16.22L25.75 16.22L25.75 12.32C26.26 12.94 27.01 13.31 27.97 13.31C29.69 13.31 31.06 12.00 31.06 9.84C31.06 7.69 29.69 6.36 27.97 6.36ZM27.64 12.12C26.40 12.12 25.59 11.14 25.59 9.84C25.59 8.55 26.40 7.55 27.64 7.55C28.83 7.55 29.62 8.55 29.62 9.84C29.62 11.14 28.83 12.12 27.64 12.12ZM35.52 11.93C35.44 11.99 35.20 12.06 34.93 12.06C34.48 12.06 34.20 11.80 34.20 11.20L34.20 7.67L35.60 7.67L35.60 6.53L34.20 6.53L34.20 4.64L32.78 4.64L32.78 6.53L31.91 6.53L31.91 7.67L32.78 7.67L32.78 11.32C32.78 12.91 33.77 13.27 34.59 13.27C35.12 13.27 35.54 13.17 35.71 13.08ZM43.20 9.70C43.20 7.73 41.87 6.36 39.94 6.36C37.95 6.36 36.53 7.89 36.53 9.84C36.53 11.80 37.93 13.31 40.10 13.31C41.26 13.31 42.22 12.92 42.82 12.25L41.84 11.46C41.42 11.94 40.85 12.19 40.09 12.19C38.85 12.19 38.12 11.33 38.02 10.15L43.20 10.15ZM39.94 7.50C40.98 7.50 41.65 8.12 41.80 9.17L38.08 9.17C38.28 8.17 38.97 7.50 39.94 7.50ZM50.47 13.15L47.92 9.70L50.20 6.53L48.59 6.53L47.12 8.74L45.63 6.53L44.04 6.53L46.33 9.71L43.78 13.15L45.41 13.15L47.12 10.68L48.83 13.15ZM54.48 11.93C54.40 11.99 54.16 12.06 53.89 12.06C53.43 12.06 53.16 11.80 53.16 11.20L53.16 7.67L54.56 7.67L54.56 6.53L53.16 6.53L53.16 4.64L51.74 4.64L51.74 6.53L50.87 6.53L50.87 7.67L51.74 7.67L51.74 11.32C51.74 12.91 52.73 13.27 53.55 13.27C54.08 13.27 54.50 13.17 54.67 13.08Z"></path></g><!----><g data-v-423bf9ae="" id="3492eb81-1057-4d7d-8297-7a66d090d01d" transform="matrix(1.0113918418054102,0,0,1.0113918418054102,-3.0933689136630917,-5.057115483773423)" stroke="none" fill="black"><circle cx="55.538" cy="19.677" r="4.901"></circle><circle cx="23.472" cy="42.596" r="4.9"></circle><circle cx="45.736" cy="65.145" r="4.901"></circle><circle cx="12.968" cy="82.662" r="4.901"></circle><circle cx="81.493" cy="25.552" r="4.901"></circle><circle cx="47.69" cy="89.1" r="4.9"></circle><path d="M12.968 83.811a1.163 1.163 0 0 1-.704-.24 1.171 1.171 0 0 1-.403-.6L4.046 56.078a1.15 1.15 0 0 1 .438-1.258l51.203-36.386a1.152 1.152 0 0 1 1.616 1.587L16.579 79.428l28.615-15.297a1.16 1.16 0 0 1 .542-.135h46.606l-11.85-37.638L58.655 7.024a1.15 1.15 0 0 1 1.524-1.722l22.075 19.545c.156.139.272.317.335.516L95.006 64.8c.109.348.047.729-.17 1.023a1.147 1.147 0 0 1-.927.471H46.024l-32.492 17.37a1.231 1.231 0 0 1-.564.147zm-6.486-27.59l6.912 23.785L51.75 24.053 6.482 56.221z"></path><path d="M45.737 66.295c-.077 0-.155-.008-.233-.023h-.002l-.047-.012c-.003 0-.004 0-.006-.002a1.14 1.14 0 0 1-.539-.312L10.716 31.75 6.281 55.965a1.15 1.15 0 0 1-2.262-.414l4.829-26.37a1.148 1.148 0 1 1 1.943-.606l34.292 34.292 9.896-42.656-28.495-7.184a1.148 1.148 0 0 1 .081-2.247l32.653-5.749a1.15 1.15 0 0 1 1.319 1.392l-2.81 12.109 24.046 6.062a1.152 1.152 0 0 1 .57 1.887L46.603 65.9a1.05 1.05 0 0 1-.224.197l-.001.002h-.002l-.001.002h-.001a.663.663 0 0 1-.049.031h-.001l-.002.002h-.002a1.136 1.136 0 0 1-.583.161zm11.472-45.522l-9.354 40.323 31.499-34.74-22.145-5.583zm-24.947-8.661l23.237 5.858 2.406-10.373-25.643 4.515z"></path><path d="M47.69 90.25c-.069 0-.14-.006-.21-.02l-34.722-6.439a1.15 1.15 0 0 1 .419-2.26l33.245 6.164-1.82-22.307-18.92-53.09a1.15 1.15 0 1 1 2.166-.772L46.819 64.76c.033.094.055.191.062.293l1.955 23.953a1.153 1.153 0 0 1-1.146 1.244z"></path><path d="M47.689 90.25a1.152 1.152 0 0 1-1.014-1.692l33.803-63.391a1.151 1.151 0 0 1 2.03 1.082L48.705 89.641a1.15 1.15 0 0 1-1.016.609z"></path></g><!----></svg>