<svg data-v-423bf9ae="" xmlns="http://www.w3.org/2000/svg" viewBox="0 0 250.26194745298415 60" class="font"><!----><!----><!----><g data-v-423bf9ae="" id="8e4ac806-ab79-4d52-8893-566d52d7eae3" fill="black" transform="matrix(4.622496310940746,0,0,4.622496310940746,-2.449920767358705,-14.976887853112999)"><path d="M5.80 3.24L5.80 7.32C5.29 6.72 4.56 6.36 3.62 6.36C1.90 6.36 0.53 7.69 0.53 9.84C0.53 12.00 1.90 13.31 3.62 13.31C4.61 13.31 5.38 12.91 5.89 12.25L6.07 13.15L7.22 13.15L7.22 3.24ZM3.95 12.12C2.76 12.12 1.97 11.14 1.97 9.84C1.97 8.55 2.76 7.55 3.95 7.55C5.19 7.55 5.99 8.55 5.99 9.84C5.99 11.14 5.19 12.12 3.95 12.12ZM15.27 9.70C15.27 7.73 13.94 6.36 12.02 6.36C10.02 6.36 8.60 7.89 8.60 9.84C8.60 11.80 10.00 13.31 12.18 13.31C13.33 13.31 14.29 12.92 14.89 12.25L13.91 11.46C13.49 11.94 12.92 12.19 12.16 12.19C10.92 12.19 10.19 11.33 10.09 10.15L15.27 10.15ZM12.02 7.50C13.05 7.50 13.72 8.12 13.87 9.17L10.15 9.17C10.35 8.17 11.04 7.50 12.02 7.50ZM22.95 9.70C22.95 7.73 21.63 6.36 19.70 6.36C17.70 6.36 16.29 7.89 16.29 9.84C16.29 11.80 17.69 13.31 19.86 13.31C21.01 13.31 21.98 12.92 22.57 12.25L21.60 11.46C21.18 11.94 20.61 12.19 19.85 12.19C18.61 12.19 17.88 11.33 17.78 10.15L22.95 10.15ZM19.70 7.50C20.74 7.50 21.41 8.12 21.55 9.17L17.84 9.17C18.04 8.17 18.73 7.50 19.70 7.50ZM27.97 6.36C26.98 6.36 26.22 6.77 25.70 7.42L25.58 6.53L24.34 6.53L24.34 16.22L25.75 16.22L25.75 12.32C26.26 12.94 27.01 13.31 27.97 13.31C29.69 13.31 31.06 12.00 31.06 9.84C31.06 7.69 29.69 6.36 27.97 6.36ZM27.64 12.12C26.40 12.12 25.59 11.14 25.59 9.84C25.59 8.55 26.40 7.55 27.64 7.55C28.83 7.55 29.62 8.55 29.62 9.84C29.62 11.14 28.83 12.12 27.64 12.12ZM35.52 11.93C35.44 11.99 35.20 12.06 34.93 12.06C34.48 12.06 34.20 11.80 34.20 11.20L34.20 7.67L35.60 7.67L35.60 6.53L34.20 6.53L34.20 4.64L32.78 4.64L32.78 6.53L31.91 6.53L31.91 7.67L32.78 7.67L32.78 11.32C32.78 12.91 33.77 13.27 34.59 13.27C35.12 13.27 35.54 13.17 35.71 13.08ZM43.20 9.70C43.20 7.73 41.87 6.36 39.94 6.36C37.95 6.36 36.53 7.89 36.53 9.84C36.53 11.80 37.93 13.31 40.10 13.31C41.26 13.31 42.22 12.92 42.82 12.25L41.84 11.46C41.42 11.94 40.85 12.19 40.09 12.19C38.85 12.19 38.12 11.33 38.02 10.15L43.20 10.15ZM39.94 7.50C40.98 7.50 41.65 8.12 41.80 9.17L38.08 9.17C38.28 8.17 38.97 7.50 39.94 7.50ZM50.47 13.15L47.92 9.70L50.20 6.53L48.59 6.53L47.12 8.74L45.63 6.53L44.04 6.53L46.33 9.71L43.78 13.15L45.41 13.15L47.12 10.68L48.83 13.15ZM54.48 11.93C54.40 11.99 54.16 12.06 53.89 12.06C53.43 12.06 53.16 11.80 53.16 11.20L53.16 7.67L54.56 7.67L54.56 6.53L53.16 6.53L53.16 4.64L51.74 4.64L51.74 6.53L50.87 6.53L50.87 7.67L51.74 7.67L51.74 11.32C51.74 12.91 52.73 13.27 53.55 13.27C54.08 13.27 54.50 13.17 54.67 13.08Z"></path></g><!----><!----></svg>