<?xml version="1.0" encoding="utf-8"?>
<!-- Generator: Adobe Illustrator 25.2.1, SVG Export Plug-In . SVG Version: 6.00 Build 0)  -->
<svg version="1.1" id="Layer_1" xmlns="http://www.w3.org/2000/svg" xmlns:xlink="http://www.w3.org/1999/xlink" x="0px" y="0px"
	 viewBox="0 0 300 300" style="enable-background:new 0 0 300 300;" xml:space="preserve">
<style type="text/css">
	.st0{fill:url(#SVGID_1_);}
	.st1{fill:url(#SVGID_2_);}
	.st2{fill:url(#SVGID_3_);}
	.st3{fill:url(#SVGID_4_);}
	.st4{fill:url(#SVGID_5_);}
	.st5{fill:url(#SVGID_6_);}
	.st6{fill:url(#SVGID_7_);}
	.st7{fill:url(#SVGID_8_);}
	.st8{fill:url(#SVGID_9_);}
	.st9{fill:url(#SVGID_10_);}
</style>
<g id="_x31_09bacc3-3497-4de2-95aa-c072c940a198" transform="matrix(0.6115189106113136,0,0,0.6115189106113136,37.55370070423613,119.72561933153493)">
	
		<linearGradient id="SVGID_1_" gradientUnits="userSpaceOnUse" x1="-1123.079" y1="948.8475" x2="-1120.3579" y2="948.8475" gradientTransform="matrix(5.4325 2.5332 2.5332 -5.4325 3881.6633 7960.4961)">
		<stop  offset="0" style="stop-color:#8E42D3"/>
		<stop  offset="1" style="stop-color:#D46975"/>
	</linearGradient>
	<circle class="st0" cx="200.2" cy="-31.6" r="13.3"/>
	
		<linearGradient id="SVGID_2_" gradientUnits="userSpaceOnUse" x1="-1128.5876" y1="938.9971" x2="-1125.8666" y2="938.9971" gradientTransform="matrix(5.4314 2.5327 2.5327 -5.4314 3848.5471 7981.6655)">
		<stop  offset="0" style="stop-color:#8E42D3"/>
		<stop  offset="1" style="stop-color:#D46975"/>
	</linearGradient>
	<circle class="st1" cx="113" cy="30.7" r="13.3"/>
	
		<linearGradient id="SVGID_3_" gradientUnits="userSpaceOnUse" x1="-1120.1135" y1="935.831" x2="-1117.3925" y2="935.831" gradientTransform="matrix(5.4325 2.5332 2.5332 -5.4325 3871.8613 8005.9639)">
		<stop  offset="0" style="stop-color:#8E42D3"/>
		<stop  offset="1" style="stop-color:#D46975"/>
	</linearGradient>
	<circle class="st2" cx="173.6" cy="92" r="13.3"/>
	
		<linearGradient id="SVGID_4_" gradientUnits="userSpaceOnUse" x1="-1126.5126" y1="927.2996" x2="-1123.7915" y2="927.2996" gradientTransform="matrix(5.4325 2.5332 2.5332 -5.4325 3839.0935 8023.481)">
		<stop  offset="0" style="stop-color:#8E42D3"/>
		<stop  offset="1" style="stop-color:#D46975"/>
	</linearGradient>
	<circle class="st3" cx="84.4" cy="139.7" r="13.3"/>
	
		<linearGradient id="SVGID_5_" gradientUnits="userSpaceOnUse" x1="-1115.6147" y1="950.4676" x2="-1112.8937" y2="950.4676" gradientTransform="matrix(5.4325 2.5332 2.5332 -5.4325 3907.6184 7966.3711)">
		<stop  offset="0" style="stop-color:#8E42D3"/>
		<stop  offset="1" style="stop-color:#D46975"/>
	</linearGradient>
	<circle class="st4" cx="270.8" cy="-15.7" r="13.3"/>
	
		<linearGradient id="SVGID_6_" gradientUnits="userSpaceOnUse" x1="-1116.6445" y1="929.8359" x2="-1113.9235" y2="929.8359" gradientTransform="matrix(5.4314 2.5327 2.5327 -5.4314 3872.7651 8028.1694)">
		<stop  offset="0" style="stop-color:#8E42D3"/>
		<stop  offset="1" style="stop-color:#D46975"/>
	</linearGradient>
	<circle class="st5" cx="178.9" cy="157.2" r="13.3"/>
	
		<linearGradient id="SVGID_7_" gradientUnits="userSpaceOnUse" x1="-1356.993" y1="932.7766" x2="-1354.2726" y2="932.7766" gradientTransform="matrix(50.4668 20.3605 23.533 -43.6633 46560.1953 68344.6641)">
		<stop  offset="0" style="stop-color:#8E42D3"/>
		<stop  offset="1" style="stop-color:#D46975"/>
	</linearGradient>
	<path class="st6" d="M84.4,142.8c-0.7,0-1.4-0.2-1.9-0.7c-0.5-0.4-0.9-1-1.1-1.6L60.1,67.4c-0.4-1.3,0.1-2.7,1.2-3.4l139.3-99
		c1.4-1,3.4-0.6,4.4,0.8c0.7,1.1,0.8,2.5,0,3.5L94.2,130.9l77.8-41.6c0.5-0.2,1-0.4,1.5-0.4h126.8L268.1-13.5l-59.4-52.6
		c-1.3-1.2-1.4-3.2-0.2-4.4c1.1-1.2,3-1.4,4.3-0.3l60.1,53.2c0.4,0.4,0.7,0.9,0.9,1.4l33.8,107.3c0.3,0.9,0.1,2-0.5,2.8
		c-0.6,0.8-1.5,1.3-2.5,1.3H174.3L86,142.4C85.5,142.7,85,142.8,84.4,142.8z M66.8,67.8l18.8,64.7L189.9-19.7
		C189.9-19.7,66.8,67.8,66.8,67.8z"/>
	
		<linearGradient id="SVGID_8_" gradientUnits="userSpaceOnUse" x1="-1352.0455" y1="931.745" x2="-1349.3252" y2="931.745" gradientTransform="matrix(43.5817 15.8375 20.3225 -33.9637 40028.1914 53022.0078)">
		<stop  offset="0" style="stop-color:#8E42D3"/>
		<stop  offset="1" style="stop-color:#D46975"/>
	</linearGradient>
	<path class="st7" d="M173.6,95.2c-0.2,0-0.4,0-0.6-0.1h0l-0.1,0c0,0,0,0,0,0c-0.6-0.1-1.1-0.4-1.5-0.8l-93-93L66.2,67.1
		c-0.3,1.7-2,2.8-3.7,2.4c-1.6-0.3-2.7-1.9-2.5-3.6L73.2-5.8C72-7,72-9,73.2-10.2s3.2-1.2,4.4,0c0.7,0.7,1,1.8,0.9,2.8l93.3,93.3
		l26.9-116l-77.5-19.5c-1.7-0.4-2.7-2.1-2.3-3.8c0.3-1.2,1.3-2.1,2.5-2.3l88.8-15.6c1.7-0.3,3.3,0.8,3.6,2.5c0.1,0.4,0.1,0.8,0,1.2
		l-7.6,32.9l65.4,16.5c1.7,0.4,2.7,2.1,2.3,3.8c-0.1,0.5-0.4,0.9-0.7,1.3L175.9,94.1c-0.2,0.2-0.4,0.4-0.6,0.5l0,0h0l0,0h0
		c0,0-0.1,0.1-0.1,0.1h0l0,0h0C174.7,95,174.1,95.2,173.6,95.2z M204.8-28.7L179.3,81L265-13.5C265-13.5,204.8-28.7,204.8-28.7z
		 M136.9-52.2l63.2,15.9l6.5-28.2C206.7-64.5,136.9-52.2,136.9-52.2z"/>
	
		<linearGradient id="SVGID_9_" gradientUnits="userSpaceOnUse" x1="-1323.5924" y1="948.1523" x2="-1320.8719" y2="948.1523" gradientTransform="matrix(20.4962 20.5489 9.5575 -44.0673 18134.2051 68988.6172)">
		<stop  offset="0" style="stop-color:#8E42D3"/>
		<stop  offset="1" style="stop-color:#D46975"/>
	</linearGradient>
	<path class="st8" d="M178.9,160.3c-0.2,0-0.4,0-0.6-0.1l-94.5-17.5c-1.7-0.4-2.7-2-2.4-3.7c0.4-1.6,1.9-2.7,3.5-2.4l90.4,16.8
		l-5-60.7L119-51.7c-0.6-1.6,0.2-3.4,1.8-4c1.6-0.6,3.4,0.2,4,1.8c0,0,0,0.1,0,0.1L176.5,91c0.1,0.3,0.1,0.5,0.2,0.8L182,157
		c0.1,1.7-1.2,3.2-2.9,3.4C179,160.3,179,160.3,178.9,160.3z"/>
	
		<linearGradient id="SVGID_10_" gradientUnits="userSpaceOnUse" x1="-1318.4562" y1="947.5339" x2="-1315.7358" y2="947.5339" gradientTransform="matrix(19.9981 16.9678 9.3253 -36.3875 17696.3574 56870.4922)">
		<stop  offset="0" style="stop-color:#8E42D3"/>
		<stop  offset="1" style="stop-color:#D46975"/>
	</linearGradient>
	<path class="st9" d="M178.9,160.3c-1.7,0-3.1-1.4-3.1-3.1c0-0.5,0.1-1,0.4-1.5l92-172.5c0.9-1.5,2.8-2,4.3-1.1
		c1.4,0.8,2,2.6,1.2,4.1l-92,172.5C181.1,159.7,180,160.3,178.9,160.3z"/>
</g>
</svg>
